<svg width="1885" height="1885" viewBox="0 0 1885 1885" fill="none" xmlns="http://www.w3.org/2000/svg">
<path d="M836.605 1231.82C704.873 1150.23 735.025 1071.72 658.227 1005.34C588.226 944.836 652.952 840.987 689.863 756.131C721.651 683.051 844.403 729.29 912.07 689.526C985.049 646.639 995.638 583.286 1075.05 614.006C1152.77 644.069 1136.64 704.753 1150.91 811.787C1165.76 923.124 1304.34 891.743 1254.65 1012.41C1204.96 1133.08 1113.68 1104.58 1049.93 1159.51C986.177 1214.43 970.728 1314.88 836.605 1231.82Z" stroke="#D8C4A5" stroke-width="8"/>
<path d="M889.691 1080.69C826.813 1041.74 841.205 1004.27 804.547 972.584C771.134 943.704 802.03 894.134 819.648 853.63C834.821 818.748 893.413 840.819 925.712 821.838C960.547 801.367 965.602 771.128 1003.51 785.791C1040.6 800.141 1032.91 829.107 1039.72 880.196C1046.8 933.34 1112.95 918.361 1089.23 975.96C1065.52 1033.56 1021.94 1019.95 991.515 1046.17C961.086 1072.39 953.711 1120.34 889.691 1080.69Z" stroke="#D8C4A5" stroke-width="8"/>
<path d="M807.83 1308.72C640.97 1205.38 679.162 1105.94 581.885 1021.86C493.217 945.217 575.204 813.675 621.957 706.19C662.222 613.623 817.708 672.192 903.419 621.824C995.86 567.501 1009.27 487.253 1109.86 526.165C1208.31 564.245 1187.88 641.112 1205.96 776.688C1224.76 917.715 1400.3 877.966 1337.36 1030.82C1274.41 1183.66 1158.79 1147.56 1078.04 1217.13C997.289 1286.7 977.719 1413.94 807.83 1308.72Z" stroke="#D8C4A5" stroke-width="8"/>
<path d="M824.097 1271.09C674.801 1178.62 708.973 1089.65 621.936 1014.42C542.601 945.846 615.958 828.151 657.79 731.98C693.816 649.157 832.935 701.561 909.624 656.494C992.334 607.889 1004.34 536.089 1094.34 570.905C1182.42 604.977 1164.14 673.752 1180.31 795.057C1197.14 921.239 1354.2 885.674 1297.88 1022.43C1241.57 1159.19 1138.11 1126.89 1065.86 1189.14C993.613 1251.39 976.103 1365.23 824.097 1271.09Z" stroke="#D8C4A5" stroke-width="8"/>
<path d="M791.56 1346.34C607.135 1232.11 649.348 1122.2 541.831 1029.27C443.829 944.566 534.446 799.178 586.121 680.379C630.624 578.068 802.477 642.802 897.211 587.132C999.382 527.09 1014.21 438.396 1125.39 481.404C1234.19 523.492 1211.61 608.45 1231.59 758.297C1252.38 914.169 1446.39 870.236 1376.83 1039.17C1307.26 1208.11 1179.46 1168.21 1090.21 1245.1C1000.96 1322 979.332 1462.63 791.56 1346.34Z" stroke="#D8C4A5" stroke-width="8"/>
<path d="M780.634 1386.32C578.646 1261.21 624.878 1140.84 507.122 1039.06C399.786 946.281 499.034 787.047 555.63 656.933C604.372 544.878 792.591 615.778 896.347 554.805C1008.25 489.046 1024.49 391.904 1146.25 439.008C1265.42 485.105 1240.69 578.154 1262.58 742.273C1285.34 912.989 1497.83 864.872 1421.64 1049.9C1345.45 1234.93 1205.48 1191.22 1107.73 1275.44C1009.98 1359.66 986.289 1513.69 780.634 1386.32Z" stroke="#D8C4A5" stroke-width="8"/>
<path d="M764.366 1423.94C544.813 1287.96 595.066 1157.12 467.07 1046.49C350.401 945.645 458.279 772.564 519.797 631.137C572.777 509.337 777.363 586.402 890.141 520.128C1011.77 448.65 1029.42 343.062 1161.78 394.262C1291.31 444.367 1264.43 545.507 1288.22 723.897C1312.96 909.458 1543.93 857.157 1461.11 1058.27C1378.29 1259.39 1226.15 1211.89 1119.9 1303.43C1013.65 1394.97 987.905 1562.39 764.366 1423.94Z" stroke="#D8C4A5" stroke-width="8"/>
<path d="M748.103 1461.58C510.986 1314.72 565.259 1173.41 427.023 1053.92C301.021 945.013 417.528 758.085 483.968 605.343C541.186 473.8 762.139 557.03 883.94 485.454C1015.3 408.258 1034.36 294.223 1177.31 349.518C1317.2 403.632 1288.17 512.863 1313.86 705.524C1340.58 905.931 1590.03 849.445 1500.59 1066.65C1411.14 1283.86 1246.83 1232.55 1132.08 1331.42C1017.33 1430.28 989.524 1611.1 748.103 1461.58Z" stroke="#D8C4A5" stroke-width="8"/>
<path d="M737.183 1501.57C482.501 1343.84 540.795 1192.06 392.32 1063.72C256.984 946.747 382.121 745.973 453.482 581.917C514.939 440.63 752.259 530.025 883.082 453.147C1024.18 370.233 1044.65 247.75 1198.18 307.142C1348.43 365.264 1317.26 482.587 1344.85 689.519C1373.55 904.77 1641.48 844.101 1545.41 1077.4C1449.34 1310.69 1272.86 1255.59 1149.61 1361.77C1026.36 1467.96 996.487 1662.17 737.183 1501.57Z" stroke="#D8C4A5" stroke-width="8"/>
<path d="M720.911 1539.2C448.666 1370.59 510.979 1208.34 352.264 1071.15C207.595 946.11 341.363 731.489 417.645 556.12C483.34 405.088 737.027 500.649 876.872 418.469C1027.7 329.836 1049.58 198.907 1213.7 262.395C1374.32 324.525 1340.99 449.939 1370.48 671.142C1401.17 901.238 1687.57 836.385 1584.88 1085.77C1482.18 1335.16 1293.53 1276.25 1161.78 1389.76C1030.03 1503.27 998.099 1710.88 720.911 1539.2Z" stroke="#D8C4A5" stroke-width="8"/>
<path d="M867.833 1156.09C771.23 1096.26 793.341 1038.69 737.023 990.007C685.689 945.636 733.155 869.481 760.223 807.253C783.534 753.661 873.552 787.569 923.174 758.409C976.693 726.958 984.458 680.5 1042.7 703.028C1099.69 725.074 1087.86 769.575 1098.33 848.067C1109.21 929.714 1210.84 906.701 1174.4 995.193C1137.96 1083.68 1071.02 1062.78 1024.27 1103.06C977.52 1143.34 966.19 1217 867.833 1156.09Z" stroke="#D8C4A5" stroke-width="8"/>
<path d="M920.839 1004.88C893.088 987.698 899.44 971.16 883.262 957.176C868.516 944.431 882.151 922.554 889.927 904.679C896.623 889.284 922.481 899.025 936.736 890.648C952.109 881.614 954.34 868.268 971.069 874.739C987.441 881.072 984.043 893.856 987.05 916.403C990.177 939.857 1019.37 933.246 1008.9 958.666C998.435 984.086 979.205 978.082 965.776 989.652C952.347 1001.22 949.092 1022.38 920.839 1004.88Z" stroke="#D8C4A5" stroke-width="8"/>
<path d="M878.755 1116.1C799.716 1067.15 817.807 1020.05 771.728 980.218C729.727 943.914 768.563 881.605 790.71 830.691C809.782 786.844 883.434 814.587 924.034 790.728C967.822 764.996 974.175 726.984 1021.82 745.416C1068.45 763.454 1058.78 799.865 1067.34 864.085C1076.25 930.887 1159.4 912.059 1129.58 984.461C1099.77 1056.86 1045 1039.76 1006.75 1072.72C968.498 1105.67 959.229 1165.94 878.755 1116.1Z" stroke="#D8C4A5" stroke-width="8"/>
<path d="M931.76 964.898C921.574 958.59 923.905 952.519 917.967 947.387C912.555 942.708 917.559 934.679 920.413 928.117C922.871 922.467 932.363 926.042 937.595 922.967C943.238 919.651 944.057 914.753 950.197 917.128C956.206 919.452 954.959 924.145 956.063 932.421C957.211 941.03 967.926 938.603 964.084 947.934C960.242 957.264 953.184 955.06 948.254 959.307C943.325 963.554 942.131 971.321 931.76 964.898Z" stroke="#D8C4A5" stroke-width="8"/>
<path d="M851.287 1193.47C737.119 1122.76 763.251 1054.72 696.693 997.188C636.025 944.75 692.121 854.748 724.11 781.205C751.66 717.87 858.045 757.944 916.69 723.481C979.939 686.312 989.116 631.406 1057.94 658.03C1125.3 684.085 1111.32 736.678 1123.69 829.441C1136.55 925.933 1256.66 898.736 1213.59 1003.32C1170.53 1107.9 1091.42 1083.19 1036.17 1130.8C980.916 1178.4 967.527 1265.46 851.287 1193.47Z" stroke="#D8C4A5" stroke-width="8"/>
<path d="M904.371 1042.33C859.058 1014.27 869.43 987.263 843.012 964.429C818.933 943.616 841.198 907.894 853.895 878.705C864.829 853.566 907.054 869.472 930.33 855.794C955.434 841.041 959.077 819.249 986.394 829.816C1013.13 840.157 1007.58 861.031 1012.49 897.849C1017.6 936.148 1065.27 925.353 1048.17 966.862C1031.08 1008.37 999.68 998.566 977.751 1017.46C955.822 1036.35 950.508 1070.91 904.371 1042.33Z" stroke="#D8C4A5" stroke-width="8"/>
</svg>
